PathFileType	4	(X/Y/Z)	Walk6.trc
DataRate	CameraRate	NumFrames	NumMarkers	Units	OrigDataRate	OrigDataStartFrame	OrigNumFrames
200.000000	200.000000	9	59	mm	200.000000	366	490
Frame#	Times		LFHD		RFHD		CLAV		RBack		RACR1		RUA1		RFA1		RWRR		RWRU		RCAR		LACR1		LUA1		LFA1		LWRU		RTH1		RTH3		LTH3		LTH2		LTH4		LLFC		LWRR		LTH1		T10		RElbow		LASI		C7		RTH2		LTB2		LToe		LBHD		LTB4		RTH4		STRN		LMMAL		RTB1		LMT1		RTB2		RBHD		LTB1		LCAL		LCAR		LElbow		LTB3		RPSI		RElbowM		LElbowM		RLFC		LMT5		LLMAL		LPSI		RTB4		RMT1		RASI		RTB3		RCAL		RMT5		RLMAL		RToe		RMMAL
			X1	Y1	Z1	X2	Y2	Z2	X3	Y3	Z3	X4	Y4	Z4	X5	Y5	Z5	X6	Y6	Z6	X7	Y7	Z7	X8	Y8	Z8	X9	Y9	Z9	X10	Y10	Z10	X11	Y11	Z11	X12	Y12	Z12	X13	Y13	Z13	X14	Y14	Z14	X15	Y15	Z15	X16	Y16	Z16	X17	Y17	Z17	X18	Y18	Z18	X19	Y19	Z19	X20	Y20	Z20	X21	Y21	Z21	X22	Y22	Z22	X23	Y23	Z23	X24	Y24	Z24	X25	Y25	Z25	X26	Y26	Z26	X27	Y27	Z27	X28	Y28	Z28	X29	Y29	Z29	X30	Y30	Z30	X31	Y31	Z31	X32	Y32	Z32	X33	Y33	Z33	X34	Y34	Z34	X35	Y35	Z35	X36	Y36	Z36	X37	Y37	Z37	X38	Y38	Z38	X39	Y39	Z39	X40	Y40	Z40	X41	Y41	Z41	X42	Y42	Z42	X43	Y43	Z43	X44	Y44	Z44	X45	Y45	Z45	X46	Y46	Z46	X47	Y47	Z47	X48	Y48	Z48	X49	Y49	Z49	X50	Y50	Z50	X51	Y51	Z51	X52	Y52	Z52	X53	Y53	Z53	X54	Y54	Z54	X55	Y55	Z55	X56	Y56	Z56	X57	Y57	Z57	X58	Y58	Z58	X59	Y59	Z59

366	1.83	245.12	1443.4	-67.217	238.95	1431.7	28.556	222.3	1189.2	-34.204	37.857	1150.5	86.803	158.49	1213	147.88	177.62	1072.1	225.26	251.46	833.32	257.43	277.31	736.91	222.94	240.93	731.71	285.12	293.94	683.01	276.21	142.4	1221.9	-220.14	149.79	1057.1	-292.11	183.99	851.2	-333.75	193.37	739.3	-347.77	148.13	643.14	170.4	153.28	476.88	119.18	192.76	496.62	-217.23	219	600.3	-209.42	171.55	579.2	-238.38	228.3	401.66	-188.38	240.16	754.21	-307.67	149.71	661.69	-252.69	-5.7352	1076.7	-22.8	183.13	944.85	256.5	182.71	822.96	-200.95	82.688	1275.3	-29.221	205.51	566.97	131.3	117.61	251.81	-168.19	116.71	39.11	-107.29	121.16	1360.7	-94.809	138.48	240.15	-110.88	148.42	559.07	148.8	272.5	1081.9	-31.767	29.276	148.9	-52.694	185.28	289.9	39.422	81.713	54.698	-75.118	136.71	203.23	78.757	113.55	1353	37.534	200.19	302.37	-121.52	-42.884	162.81	-79.06	242.32	701.2	-350.39	112.53	938.27	-307.91	85.295	177.17	-103.17	-48.82	853.78	26.633	125.26	910.29	192.57	86.524	915.83	-239.88	138.48	391.74	94.29	34.003	67.449	-148.41	-5.2851	150.05	-127.76	-61.502	849.65	-77.238	170.72	204.63	27.605	223.93	29.19	-18.89	214.67	833.12	118.83	162.82	121.17	15.751	56.193	31.98	2.5961	196.98	23.158	74.152	112.2	58.291	49.085	278.29	33.405	15.749	124.59	68.652	-33.149
367	1.835	250.68	1443.7	-67.096	244.54	1432	28.684	227.83	1189.5	-34.074	43.431	1150.9	87.069	164.02	1213.5	148.04	183.42	1072.7	225.55	258.19	834.2	257.51	284.48	738.04	222.89	248.21	732.52	285.08	301.57	684.26	276.1	147.74	1222	-219.94	154.65	1057.4	-292.08	187.74	850.81	-333.83	195.82	738.83	-348.14	152.13	643.06	170.72	155.72	476.8	119.33	200.24	497.87	-216.62	225.58	601.82	-209.18	178.19	580.2	-237.94	236.77	403.32	-187.56	242.8	753	-307.96	155.55	662.45	-252.36	-0.13211	1076.9	-22.352	189.37	945.46	256.93	188.23	823.61	-200.77	88.292	1275.5	-29.032	208.85	566.35	131.77	129.56	250.99	-167.14	135.38	39.273	-106.36	126.72	1360.9	-94.64	150.86	239.88	-109.92	151.61	558.97	148.95	277.98	1082.2	-32.064	44.151	145.81	-51.499	186.8	289.47	39.652	99.886	53.814	-74.18	137.51	203.13	78.736	119.17	1353.2	37.707	210.95	303.6	-120.64	-28.554	157.38	-77.706	244.22	699.78	-350.62	117.33	938.51	-307.56	99.321	175.53	-102.07	-43.394	854.26	26.908	131.37	910.71	193.2	91.091	916.26	-239.64	140.44	391.67	94.369	51.459	64.702	-147.31	9.4378	145.95	-126.56	-56.051	850.47	-76.811	171.72	204.31	27.714	223.98	29.156	-18.873	219.49	833.33	120	163.31	120.92	15.75	56.272	32.08	2.5436	196.97	23.137	74.154	112.32	58.336	49.042	278.46	33.224	15.871	124.78	68.583	-33.184
368	1.84	256.21	1443.9	-67.006	250.11	1432.2	28.781	233.34	1189.7	-33.958	49.005	1151.2	87.338	169.54	1213.9	148.19	189.15	1073.2	225.85	264.89	835.04	257.61	291.64	739.14	222.84	255.47	733.29	285.03	309.17	685.49	275.99	153.09	1222.1	-219.76	159.55	1057.5	-292.05	191.55	850.38	-333.95	198.33	738.35	-348.58	156.22	642.97	171.01	158.28	476.73	119.44	207.64	499.04	-216.03	232.11	603.26	-208.96	184.78	581.12	-237.54	245.08	404.91	-186.71	245.45	751.77	-308.3	161.37	663.14	-252.06	5.459	1077.1	-21.903	195.54	946.01	257.37	193.77	824.21	-200.6	93.884	1275.7	-28.86	212.29	565.74	132.19	141.57	250.08	-166.12	154.21	39.46	-105.55	132.26	1361.1	-94.5	163.3	239.53	-108.97	154.92	558.88	149.06	283.46	1082.5	-32.37	59.272	142.57	-50.38	188.33	289.04	39.832	118.27	52.9	-73.364	138.36	203.02	78.696	124.77	1353.4	37.85	221.66	304.78	-119.77	-13.915	151.74	-76.404	246.15	698.38	-350.95	122.18	938.69	-307.23	113.51	173.79	-101.02	-37.95	854.69	27.219	137.47	911.08	193.79	95.689	916.61	-239.43	142.44	391.59	94.431	69.155	61.911	-146.33	24.416	141.69	-125.42	-50.617	851.24	-76.362	172.72	203.98	27.782	224.04	29.117	-18.861	224.36	833.47	121.13	163.8	120.67	15.719	56.36	32.194	2.4872	196.96	23.116	74.15	112.45	58.392	48.992	278.63	33.042	15.995	124.96	68.508	-33.221
369	1.845	261.73	1444	-66.945	255.66	1432.4	28.851	238.85	1189.8	-33.855	54.581	1151.5	87.611	175.06	1214.3	148.32	194.83	1073.7	226.17	271.55	835.84	257.73	298.78	740.21	222.8	262.69	734.01	284.97	316.74	686.68	275.88	158.46	1222.1	-219.59	164.5	1057.6	-292.01	195.41	849.94	-334.08	200.88	737.87	-349.08	160.42	642.85	171.25	160.96	476.65	119.51	214.96	500.13	-215.44	238.6	604.59	-208.75	191.33	581.97	-237.17	253.23	406.41	-185.82	248.14	750.53	-308.71	167.18	663.76	-251.79	11.038	1077.3	-21.455	201.66	946.52	257.81	199.33	824.77	-200.42	99.465	1275.9	-28.708	215.83	565.11	132.54	153.62	249.07	-165.14	173.19	39.692	-104.91	137.79	1361.2	-94.388	175.79	239.12	-108.06	158.34	558.78	149.14	288.92	1082.7	-32.678	74.638	139.2	-49.35	189.88	288.59	39.959	136.85	51.975	-72.692	139.26	202.92	78.639	130.35	1353.6	37.966	232.28	305.91	-118.89	1.0394	145.92	-75.162	248.12	697.01	-351.36	127.07	938.81	-306.94	127.85	171.99	-100.02	-32.492	855.07	27.56	143.56	911.4	194.36	100.32	916.87	-239.24	144.48	391.49	94.475	87.075	59.108	-145.46	39.649	137.29	-124.34	-45.198	851.96	-75.9	173.74	203.64	27.812	224.11	29.075	-18.855	229.27	833.54	122.19	164.31	120.42	15.66	56.456	32.326	2.4271	196.95	23.095	74.141	112.59	58.458	48.932	278.82	32.86	16.12	125.16	68.429	-33.259
370	1.85	267.23	1444.1	-66.911	261.2	1432.5	28.894	244.35	1189.9	-33.764	60.158	1151.7	87.887	180.59	1214.6	148.44	200.45	1074.1	226.49	278.17	836.6	257.87	305.9	741.24	222.76	269.88	734.68	284.9	324.28	687.82	275.77	163.84	1222.1	-219.43	169.51	1057.6	-291.97	199.32	849.47	-334.24	203.48	737.38	-349.64	164.72	642.71	171.45	163.77	476.56	119.54	222.18	501.12	-214.86	245.03	605.81	-208.56	197.84	582.72	-236.82	261.23	407.82	-184.91	250.87	749.27	-309.18	172.97	664.29	-251.56	16.604	1077.4	-21.01	207.74	946.97	258.26	204.89	825.27	-200.23	105.03	1275.9	-28.575	219.47	564.47	132.83	165.73	248	-164.2	192.28	39.99	-104.43	143.31	1361.3	-94.302	188.31	238.64	-107.18	161.9	558.68	149.19	294.38	1082.8	-32.984	90.249	135.74	-48.419	191.45	288.14	40.036	155.6	51.064	-72.176	140.2	202.81	78.565	135.92	1353.6	38.054	242.82	306.99	-118.02	16.311	139.97	-73.987	250.12	695.66	-351.86	131.99	938.87	-306.66	142.35	170.13	-99.083	-27.024	855.38	27.925	149.65	911.66	194.9	105	917.04	-239.08	146.58	391.38	94.5	105.2	56.329	-144.74	55.133	132.78	-123.35	-39.792	852.6	-75.433	174.78	203.3	27.805	224.18	29.03	-18.853	234.22	833.53	123.18	164.83	120.18	15.574	56.558	32.475	2.3629	196.94	23.076	74.128	112.74	58.534	48.862	279	32.678	16.246	125.36	68.346	-33.299
371	1.855	272.72	1444.2	-66.902	266.71	1432.6	28.913	249.85	1190	-33.686	65.736	1151.9	88.168	186.12	1214.9	148.55	206.02	1074.5	226.83	284.75	837.3	258.03	312.99	742.23	222.73	277.03	735.29	284.82	331.78	688.93	275.67	169.24	1221.9	-219.29	174.58	1057.5	-291.91	203.27	848.97	-334.42	206.12	736.88	-350.26	169.13	642.55	171.62	166.71	476.45	119.55	229.31	502.02	-214.27	251.43	606.92	-208.38	204.31	583.39	-236.5	269.04	409.14	-183.97	253.63	748	-309.71	178.77	664.74	-251.35	22.159	1077.5	-20.569	213.76	947.37	258.71	210.45	825.71	-200.04	110.6	1276	-28.464	223.22	563.82	133.06	177.87	246.86	-163.3	211.47	40.376	-104.14	148.83	1361.2	-94.243	200.85	238.12	-106.34	165.58	558.57	149.21	299.84	1082.8	-33.279	106.1	132.21	-47.597	193.03	287.69	40.065	174.51	50.192	-71.826	141.19	202.7	78.477	141.46	1353.7	38.115	253.25	308.03	-117.15	31.903	133.91	-72.89	252.17	694.35	-352.45	136.93	938.87	-306.41	156.98	168.24	-98.211	-21.548	855.62	28.306	155.73	911.86	195.42	109.73	917.11	-238.92	148.72	391.25	94.508	123.53	53.605	-144.16	70.867	128.21	-122.45	-34.394	853.17	-74.971	175.83	202.95	27.765	224.25	28.982	-18.857	239.22	833.45	124.1	165.36	119.93	15.466	56.664	32.643	2.2928	196.94	23.059	74.113	112.9	58.62	48.783	279.2	32.497	16.373	125.57	68.264	-33.342
372	1.86	278.2	1444.2	-66.915	272.2	1432.6	28.91	255.34	1189.9	-33.618	71.316	1152	88.451	191.65	1215.1	148.65	211.55	1074.8	227.17	291.3	837.95	258.21	320.06	743.17	222.7	284.14	735.86	284.74	339.23	689.98	275.56	174.65	1221.7	-219.17	179.71	1057.3	-291.83	207.28	848.44	-334.62	208.81	736.37	-350.93	173.64	642.34	171.74	169.79	476.32	119.53	236.34	502.82	-213.68	257.77	607.9	-208.19	210.75	583.96	-236.2	276.68	410.35	-183	256.43	746.72	-310.31	184.57	665.1	-251.18	27.702	1077.5	-20.133	219.74	947.71	259.16	216.01	826.08	-199.83	116.15	1276	-28.375	227.08	563.14	133.22	190.03	245.68	-162.45	230.73	40.874	-104.03	154.34	1361.2	-94.21	213.4	237.56	-105.54	169.39	558.44	149.2	305.28	1082.8	-33.558	122.18	128.64	-46.887	194.63	287.23	40.051	193.55	49.388	-71.643	142.22	202.59	78.377	146.99	1353.7	38.149	263.57	309.02	-116.29	47.815	127.78	-71.88	254.27	693.07	-353.14	141.91	938.81	-306.18	171.74	166.33	-97.415	-16.068	855.8	28.694	161.81	912.01	195.91	114.51	917.1	-238.77	150.92	391.11	94.5	142.04	50.966	-143.74	86.845	123.6	-121.64	-29.004	853.64	-74.521	176.9	202.6	27.696	224.33	28.932	-18.865	244.27	833.31	124.92	165.9	119.69	15.34	56.77	32.83	2.2149	196.94	23.046	74.099	113.06	58.714	48.693	279.4	32.318	16.499	125.8	68.186	-33.39
373	1.865	283.67	1444.1	-66.951	277.69	1432.6	28.886	260.83	1189.9	-33.562	76.898	1152.1	88.736	197.19	1215.3	148.74	217.04	1075.1	227.51	297.81	838.56	258.41	327.1	744.06	222.67	291.22	736.37	284.65	346.64	690.97	275.46	180.07	1221.5	-219.06	184.9	1057	-291.73	211.32	847.88	-334.83	211.55	735.85	-351.65	178.26	642.1	171.83	173	476.17	119.48	243.26	503.5	-213.09	264.07	608.74	-208.01	217.14	584.42	-235.92	284.14	411.45	-182.01	259.28	745.43	-310.96	190.39	665.38	-251.05	33.236	1077.5	-19.705	225.68	947.99	259.61	221.57	826.39	-199.62	121.69	1275.9	-28.307	231.05	562.44	133.32	202.21	244.47	-161.65	250.04	41.511	-104.09	159.84	1361	-94.202	225.94	236.98	-104.8	173.31	558.29	149.18	310.72	1082.8	-33.816	138.48	125.06	-46.293	196.25	286.76	39.999	212.71	48.681	-71.622	143.29	202.48	78.268	152.51	1353.6	38.158	273.76	309.97	-115.45	64.046	121.62	-70.967	256.41	691.82	-353.91	146.92	938.68	-305.97	186.62	164.45	-96.705	-10.588	855.9	29.082	167.88	912.09	196.37	119.36	916.99	-238.62	153.18	390.95	94.479	160.73	48.441	-143.47	103.07	118.98	-120.94	-23.616	854.02	-74.092	177.99	202.25	27.603	224.41	28.881	-18.878	249.37	833.09	125.65	166.45	119.44	15.199	56.872	33.038	2.1277	196.95	23.036	74.085	113.24	58.816	48.596	279.61	32.141	16.627	126.04	68.114	-33.447
374	1.87	289.13	1444	-67.006	283.16	1432.6	28.844	266.31	1189.7	-33.517	82.482	1152.1	89.019	202.73	1215.4	148.81	222.5	1075.3	227.86	304.29	839.1	258.63	334.1	744.9	222.65	298.25	736.83	284.56	354.01	691.9	275.36	185.51	1221.1	-218.97	190.14	1056.6	-291.62	215.41	847.3	-335.06	214.34	735.31	-352.41	182.97	641.82	171.88	176.33	475.99	119.42	250.07	504.06	-212.48	270.31	609.45	-207.82	223.48	584.78	-235.64	291.4	412.43	-180.98	262.18	744.14	-311.68	196.22	665.57	-250.94	38.761	1077.4	-19.286	231.59	948.21	260.07	227.13	826.62	-199.41	127.24	1275.8	-28.261	235.11	561.73	133.36	214.4	243.23	-160.9	269.39	42.311	-104.31	165.35	1360.9	-94.22	238.47	236.39	-104.11	177.36	558.11	149.13	316.16	1082.7	-34.046	154.99	121.5	-45.816	197.88	286.3	39.915	231.98	48.104	-71.754	144.4	202.38	78.151	158.01	1353.4	38.14	283.83	310.88	-114.63	80.592	115.45	-70.161	258.61	690.61	-354.78	151.95	938.49	-305.77	201.6	162.59	-96.088	-5.1089	855.93	29.461	173.94	912.13	196.82	124.28	916.78	-238.46	155.48	390.78	94.447	179.58	46.06	-143.35	119.52	114.39	-120.35	-18.229	854.3	-73.689	179.1	201.91	27.494	224.5	28.828	-18.894	254.51	832.8	126.28	167	119.19	15.05	56.969	33.266	2.0303	196.96	23.03	74.074	113.43	58.924	48.492	279.82	31.966	16.757	126.29	68.053	-33.515
